<svg xmlns="http://www.w3.org/2000/svg" width="21.035" height="37.061" viewBox="0 0 21.035 37.061">
  <path id="facebook" d="M13.493,37.06H7.558a1.8,1.8,0,0,1-1.8-1.8V21.876H2.3a1.8,1.8,0,0,1-1.8-1.8V14.342a1.8,1.8,0,0,1,1.8-1.8H5.76V9.672A9.78,9.78,0,0,1,8.346,2.665,9.315,9.315,0,0,1,15.214,0L19.74.007a1.8,1.8,0,0,1,1.795,1.8V7.131a1.8,1.8,0,0,1-1.8,1.8H16.69c-.929,0-1.166.186-1.217.243-.083.095-.183.362-.183,1.1v2.269h4.218a1.827,1.827,0,0,1,.89.226,1.8,1.8,0,0,1,.925,1.572l0,5.736a1.8,1.8,0,0,1-1.8,1.8H15.291V35.262a1.8,1.8,0,0,1-1.8,1.8Zm-5.56-2.173h5.185V20.9a1.2,1.2,0,0,1,1.2-1.2h4.83l0-4.986H14.318a1.2,1.2,0,0,1-1.2-1.2V10.275a3.7,3.7,0,0,1,.727-2.54,3.682,3.682,0,0,1,2.845-.978h2.673V2.179l-4.15-.007c-4.49,0-7.279,2.874-7.279,7.5v3.845a1.2,1.2,0,0,1-1.2,1.2H2.673V19.7h4.06a1.2,1.2,0,0,1,1.2,1.2ZM19.736,2.18h0Zm0,0" transform="translate(-0.5 0)" fill="#fff"/>
</svg>
