<svg id="logo" xmlns="http://www.w3.org/2000/svg" width="31.909" height="31.909" viewBox="0 0 31.909 31.909">
  <path id="Path_3" data-name="Path 3" d="M23.1,0H8.806A8.816,8.816,0,0,0,0,8.806V23.1a8.816,8.816,0,0,0,8.806,8.806H23.1A8.816,8.816,0,0,0,31.909,23.1V8.806A8.816,8.816,0,0,0,23.1,0Zm5.975,23.1A5.981,5.981,0,0,1,23.1,29.078H8.806A5.981,5.981,0,0,1,2.831,23.1V8.806A5.981,5.981,0,0,1,8.806,2.831H23.1a5.982,5.982,0,0,1,5.975,5.975V23.1Z" transform="translate(0)" fill="#fff"/>
  <path id="Path_4" data-name="Path 4" d="M49.19,40.97a8.222,8.222,0,1,0,8.222,8.222A8.231,8.231,0,0,0,49.19,40.97Zm0,13.613a5.391,5.391,0,1,1,5.391-5.391A5.4,5.4,0,0,1,49.19,54.583Z" transform="translate(-33.236 -33.237)" fill="#fff"/>
  <path id="Path_5" data-name="Path 5" d="M121,28.251a2.075,2.075,0,1,0,1.468.608A2.084,2.084,0,0,0,121,28.251Z" transform="translate(-96.475 -22.919)" fill="#fff"/>
</svg>
