<svg xmlns="http://www.w3.org/2000/svg" width="29.021" height="27.739" viewBox="0 0 29.021 27.739">
  <g id="linkedin" transform="translate(0 0.668)">
    <path id="Path_425" data-name="Path 425" d="M3.519-.668A3.242,3.242,0,1,0,3.438,5.8h.04A3.244,3.244,0,1,0,3.519-.668Zm0,0" fill="#fff"/>
    <path id="Path_426" data-name="Path 426" d="M8.109,198.313H14.33v18.716H8.109Zm0,0" transform="translate(-7.742 -189.958)" fill="#fff"/>
    <path id="Path_427" data-name="Path 427" d="M233.043,188.625c-3.356,0-5.606,3.154-5.606,3.154v-2.714h-6.221v18.716h6.221V197.329a4.264,4.264,0,0,1,.2-1.518,3.405,3.405,0,0,1,3.192-2.275c2.251,0,3.151,1.716,3.151,4.232v10.013H240.2V197.049c0-5.749-3.069-8.424-7.162-8.424Zm0,0" transform="translate(-211.184 -180.71)" fill="#fff"/>
  </g>
</svg>
