<svg id="twitter" xmlns="http://www.w3.org/2000/svg" width="38.979" height="27.86" viewBox="0 0 38.979 27.86">
  <g id="Group_33" data-name="Group 33" transform="translate(0 0)">
    <path id="Path_6" data-name="Path 6" d="M38.97,82.464a1.142,1.142,0,0,0-.874-.97l-3.906-.91a9.964,9.964,0,0,0-2.287-4.91A8.638,8.638,0,0,0,25.2,73.026c-2.661,0-4.66.852-5.942,2.532-1.619,2.121-1.626,5.042-1.406,6.925-3.3-.974-8.556-3.062-9.579-5.864a1.142,1.142,0,0,0-2.121-.061,12.765,12.765,0,0,0,.075,10.4c.207.475.429.916.653,1.321L1.482,86.594A1.142,1.142,0,0,0,.006,87.806,16.03,16.03,0,0,0,2.53,94.348c1.992,2.983,5.937,6.538,13.421,6.538A18.364,18.364,0,0,0,26.145,98a19.327,19.327,0,0,0,5.676-5.786,16.5,16.5,0,0,0,2.471-6.478l4.071-2.114A1.142,1.142,0,0,0,38.97,82.464ZM32.71,83.982a1.142,1.142,0,0,0-.609.89,14.125,14.125,0,0,1-2.2,6.1A15.981,15.981,0,0,1,15.951,98.6c-5.162,0-9.021-1.833-11.472-5.448a14.134,14.134,0,0,1-1.791-3.79l6.743,2.107a1.142,1.142,0,0,0,1.153-1.892c-.047-.048-4.148-4.288-3.025-9.934a17.059,17.059,0,0,0,5.886,3.7,37.711,37.711,0,0,0,5.592,1.817,1.143,1.143,0,0,0,1.353-1.414c-.012-.044-1.159-4.4.683-6.805A4.829,4.829,0,0,1,25.2,75.31c3.946,0,6.18,2.011,6.827,6.146.011.071.021.141.031.212l0,.012a1.142,1.142,0,0,0,.872.956l1.64.382Z" transform="translate(0 -73.026)" fill="#fff"/>
  </g>
</svg>
