<svg xmlns="http://www.w3.org/2000/svg" width="42.898" height="31" viewBox="0 0 42.898 31">
  <path id="youtube_4_" data-name="youtube (4)" d="M21.446,31.5h-.011c-1.294-.009-12.738-.113-15.98-.99A6.63,6.63,0,0,1,.789,25.847C-.059,22.663-.005,16.531,0,16.041s-.06-6.67.786-9.881l0-.009a6.77,6.77,0,0,1,4.66-4.693l.017,0C8.671.612,20.137.508,21.434.5h.023c1.3.009,12.771.113,15.984.991A6.629,6.629,0,0,1,42.1,6.146c.88,3.213.8,9.409.79,9.932.006.515.058,6.592-.786,9.793l0,.009a6.631,6.631,0,0,1-4.668,4.662l-.009,0c-3.205.842-14.671.945-15.968.954h-.012ZM4.026,7.02c-.745,2.834-.675,8.938-.674,9v.044a45.046,45.046,0,0,0,.674,8.917,3.268,3.268,0,0,0,2.3,2.293c2.392.647,11.712.851,15.118.875,3.415-.024,12.749-.222,15.123-.843a3.27,3.27,0,0,0,2.3-2.293,45.2,45.2,0,0,0,.674-8.916c0-.018,0-.035,0-.053.031-1.713-.03-6.672-.671-9.013l0-.007a3.27,3.27,0,0,0-2.3-2.3c-2.369-.648-11.7-.851-15.118-.875-3.413.024-12.738.222-15.119.842a3.361,3.361,0,0,0-2.3,2.327ZM40.484,25.444h0Zm-23.31-2.658V9.213L28.9,16Zm0,0" transform="translate(0.002 -0.5)" fill="#fff"/>
</svg>
